<svg width="24" xmlns="http://www.w3.org/2000/svg" height="24" id="screenshot-aa50c54e-8699-80bb-8006-4005fed658b5" viewBox="0 0 24 24" xmlns:xlink="http://www.w3.org/1999/xlink" fill="none" version="1.1"><g id="shape-aa50c54e-8699-80bb-8006-4005fed658b5" width="24" height="24" rx="0" ry="0" style="fill: rgb(0, 0, 0);"><g id="shape-aa50c54e-8699-80bb-8006-40068cd6426f"><defs><linearGradient id="fill-color-gradient-render-2-1" x1="1" y1="0.5" x2="0" y2="0.5000000000000001" gradientTransform=""><stop offset="0" stop-color="#d69850" stop-opacity="1"/><stop offset="1" stop-color="#ff6f6f" stop-opacity="1"/></linearGradient><linearGradient id="fill-color-gradient-render-2-0" x1="1" y1="0.5" x2="0" y2="0.5000000000000001" gradientTransform=""><stop offset="0" stop-color="#d60f46" stop-opacity="1"/><stop offset="1" stop-color="#ff6565" stop-opacity="1"/></linearGradient><pattern patternUnits="userSpaceOnUse" x="2" y="2.5" width="20" height="9" patternTransform="matrix(1.000000, 0.000000, 0.000000, 1.000000, 0.000000, 0.000000)" id="fill-0-render-2"><g><rect width="20" height="9" style="fill: url(&quot;#fill-color-gradient-render-2-1&quot;); fill-opacity: 1;"/><rect width="20" height="9" style="fill: url(&quot;#fill-color-gradient-render-2-0&quot;); fill-opacity: 0.5;"/></g></pattern></defs><g class="fills" id="fills-aa50c54e-8699-80bb-8006-40068cd6426f"><path d="M5.000,2.500C19.500,2.500,19.500,2.500,19.500,2.500L22.000,8.000C22.000,8.000,21.500,11.000,19.500,11.000C17.500,11.000,17.500,11.000,17.500,11.000L15.500,11.000L12.500,11.500L10.000,11.000L9.000,10.500L7.000,11.500L3.000,10.500L2.000,8.000L3.000,4.000C3.000,4.000,2.500,3.500,4.000,3.000L5.000,2.500Z" fill="url(#fill-0-render-2)"/></g></g><g id="shape-aa50c54e-8699-80bb-8006-400631ebff52"><defs><linearGradient id="fill-color-gradient-render-3-0" x1="1" y1="0.5" x2="0" y2="0.5000000000000001" gradientTransform=""><stop offset="0" stop-color="#f6ad55" stop-opacity="1"/><stop offset="1" stop-color="#f56565" stop-opacity="1"/></linearGradient><pattern patternUnits="userSpaceOnUse" x="3" y="10.5" width="18" height="11" patternTransform="matrix(1.000000, 0.000000, 0.000000, 1.000000, 0.000000, 0.000000)" id="fill-0-render-3"><g><rect width="18" height="11" style="fill: url(&quot;#fill-color-gradient-render-3-0&quot;); fill-opacity: 1;"/></g></pattern></defs><g class="fills" id="fills-aa50c54e-8699-80bb-8006-400631ebff52"><path d="M20.500,20.500L21.000,11.000L17.500,12.000L15.000,10.500L11.000,11.500L9.500,11.000L4.000,11.500L3.500,10.500L3.000,14.500L3.500,20.000L6.000,21.500L18.000,21.500L20.500,20.500Z" fill="url(#fill-0-render-3)"/></g></g><g id="shape-aa50c54e-8699-80bb-8006-4005fed97682" style="display: none;"><g class="fills" id="fills-aa50c54e-8699-80bb-8006-4005fed97682"><rect width="24" height="24" x="0" transform="matrix(1.000000, 0.000000, 0.000000, 1.000000, 0.000000, 0.000000)" style="fill: none;" ry="0" fill="none" rx="0" y="0" color="#000"/></g></g><g id="shape-aa50c54e-8699-80bb-8006-4005fedf6322"><g class="fills" id="fills-aa50c54e-8699-80bb-8006-4005fedf6322"><path d="M19.016,1.754C19.625,1.767,20.098,2.030,20.424,2.312C20.743,2.588,20.953,2.907,21.059,3.124C21.066,3.138,21.072,3.153,21.078,3.167C21.665,4.588,22.078,5.719,22.345,6.590C22.606,7.439,22.750,8.107,22.750,8.571C22.750,8.622,22.745,8.673,22.734,8.723C22.626,9.245,22.344,9.954,21.717,10.608L21.717,15.553C21.717,16.921,21.717,18.024,21.600,18.891C21.479,19.791,21.220,20.549,20.618,21.151C20.017,21.753,19.259,22.012,18.359,22.133C17.492,22.250,16.389,22.250,15.022,22.250L8.912,22.250C7.544,22.250,6.442,22.250,5.575,22.133C4.675,22.012,3.917,21.753,3.315,21.151C2.713,20.549,2.454,19.791,2.333,18.891C2.217,18.024,2.217,16.921,2.217,15.553L2.217,10.496C2.217,10.487,2.217,10.479,2.217,10.470C2.204,10.456,2.190,10.442,2.177,10.427C1.891,10.123,1.543,9.705,1.383,9.309C1.284,9.062,1.255,8.794,1.251,8.571C1.246,8.337,1.266,8.096,1.298,7.871C1.359,7.435,1.472,6.997,1.579,6.712L2.257,4.747L2.265,4.724C2.349,4.474,2.492,4.047,2.666,3.629C2.756,3.411,2.859,3.185,2.973,2.979C3.081,2.782,3.221,2.561,3.397,2.386C3.759,2.027,4.244,1.887,4.587,1.824C4.951,1.758,5.293,1.754,5.469,1.754L12.486,1.754C13.379,1.766,14.808,1.763,16.119,1.757L16.632,1.755C17.723,1.751,18.668,1.747,19.016,1.754ZZM20.217,11.652C19.913,11.791,19.575,11.915,19.198,12.018C17.076,12.600,15.644,11.823,14.883,11.182C14.715,11.304,14.531,11.424,14.334,11.537C13.699,11.899,12.879,12.210,11.965,12.198C10.725,12.181,9.751,11.699,9.135,11.228C8.562,11.705,7.838,12.075,6.945,12.191C5.953,12.321,5.080,12.169,4.406,11.939C4.153,11.853,3.921,11.753,3.717,11.649L3.717,15.498C3.717,16.934,3.718,17.935,3.820,18.691C3.919,19.425,4.099,19.814,4.376,20.091C4.653,20.368,5.041,20.548,5.775,20.647C6.530,20.749,7.531,20.750,8.967,20.750L14.967,20.750C16.402,20.750,17.403,20.749,18.159,20.647C18.892,20.548,19.281,20.368,19.558,20.091C19.834,19.814,20.015,19.425,20.114,18.691C20.215,17.935,20.217,16.934,20.217,15.498ZM11.986,10.698C12.549,10.706,13.104,10.512,13.590,10.234C14.070,9.960,14.434,9.632,14.609,9.434C14.658,9.373,14.892,9.019,15.158,8.189C15.285,7.795,15.707,7.577,16.101,7.704C16.496,7.830,16.713,8.252,16.587,8.647C16.368,9.330,16.142,9.810,15.953,10.121C16.474,10.523,17.402,10.955,18.802,10.572C20.621,10.073,21.115,9.024,21.247,8.497C21.232,8.249,21.142,7.782,20.912,7.031C20.664,6.225,20.273,5.149,19.703,3.766C19.665,3.697,19.576,3.562,19.443,3.447C19.306,3.328,19.155,3.257,18.985,3.254C18.657,3.247,17.737,3.251,16.638,3.255L16.636,3.255L16.125,3.257C14.821,3.262,13.380,3.267,12.470,3.254L5.469,3.254C5.313,3.254,5.082,3.259,4.858,3.300C4.612,3.345,4.492,3.413,4.453,3.451C4.429,3.475,4.370,3.550,4.287,3.701C4.210,3.843,4.130,4.015,4.051,4.204C3.898,4.573,3.769,4.958,3.684,5.210L3.676,5.233L2.993,7.212C2.991,7.219,2.988,7.226,2.985,7.233C2.923,7.398,2.832,7.731,2.783,8.080C2.759,8.251,2.748,8.409,2.750,8.540C2.752,8.604,2.756,8.656,2.763,8.694C2.768,8.731,2.774,8.747,2.775,8.749C2.821,8.863,2.994,9.106,3.270,9.400C3.531,9.679,3.792,9.905,3.916,9.991C3.947,10.012,3.976,10.036,4.003,10.062C4.073,10.127,4.381,10.346,4.890,10.520C5.383,10.688,6.022,10.799,6.751,10.704C8.265,10.506,9.135,9.105,9.381,8.218C9.492,7.819,9.905,7.585,10.304,7.695C10.703,7.806,10.937,8.219,10.827,8.618C10.712,9.031,10.486,9.569,10.134,10.102C10.529,10.380,11.168,10.686,11.986,10.698ZZM8.406,16.494C8.681,16.184,9.155,16.156,9.465,16.431C9.985,16.893,10.885,17.242,11.967,17.242C13.049,17.242,13.948,16.893,14.469,16.431C14.779,16.156,15.253,16.184,15.528,16.494C15.803,16.804,15.774,17.278,15.465,17.553C14.617,18.306,13.338,18.742,11.967,18.742C10.595,18.742,9.317,18.306,8.469,17.553C8.159,17.278,8.131,16.804,8.406,16.494ZZ" color="#000" style="fill: rgb(0, 0, 0);"/></g></g></g></svg>